<svg aria-hidden="true" style="width:0;height:0;position:absolute;overflow:hidden" xmlns="http://www.w3.org/2000/svg"><defs><symbol id="icon-gps_not_fixed" viewBox="0 0 24 24"><path d="M12 18.984q2.906 0 4.945-2.039T18.984 12t-2.039-4.945T12 5.016 7.055 7.055 5.016 12t2.039 4.945T12 18.984zm8.953-7.968h2.063v1.969h-2.063q-.328 2.953-2.672 5.297t-5.297 2.672v2.063h-1.969v-2.063q-2.953-.328-5.297-2.672t-2.672-5.297H.983v-1.969h2.063q.328-2.953 2.672-5.297t5.297-2.672V.984h1.969v2.063q2.953.328 5.297 2.672t2.672 5.297z"/></symbol><symbol id="icon-close" viewBox="0 0 32 32"><path d="m26.667 7.303-1.97-1.97-7.808 7.808-7.808-7.808-1.97 1.97 7.808 7.808-7.808 7.808 1.97 1.97 7.808-7.808 7.808 7.808 1.97-1.97-7.808-7.808 7.808-7.808z"/></symbol><symbol id="icon-location" viewBox="0 0 32 32"><path fill="none" stroke="#aeb3b9" style="stroke:var(--color1,#aeb3b9)" stroke-width="2.909" d="M27.636 16c0 6.427-5.21 11.636-11.636 11.636S4.364 22.426 4.364 16C4.364 9.573 9.574 4.364 16 4.364S27.636 9.574 27.636 16z"/><path fill="#aeb3b9" style="fill:var(--color1,#aeb3b9)" d="M14.545 0h2.909v5.818h-2.909V0zM14.545 26.182h2.909V32h-2.909v-5.818zM5.818 14.545v2.909H0v-2.909h5.818zM32 14.545v2.909h-5.818v-2.909H32z"/></symbol><symbol id="icon-star" viewBox="0 0 35 32"><path fill="none" stroke="#7e8691" style="stroke:var(--color1,#7e8691)" stroke-width="1.6" d="m17.6 2.589 3.37 10.372h10.906l-8.823 6.411.18.553 3.191 9.82-8.823-6.411-8.823 6.411 3.37-10.372-8.823-6.411h10.906l3.37-10.372z"/></symbol><symbol id="icon-right" viewBox="0 0 32 32"><path d="m11.086 22.086 2.829 2.829 8.914-8.914-8.914-8.914-2.828 2.828 6.086 6.086z"/></symbol><symbol id="icon-left" viewBox="0 0 32 32"><path d="m20.914 9.914-2.829-2.829-8.914 8.914 8.914 8.914 2.828-2.828-6.086-6.086z"/></symbol></defs></svg>